    <svg xmlns="http://www.w3.org/2000/svg">
      <symbol viewbox="0 0 59 40" id="logo-glasses">
        <path fill-rule="evenodd" clip-rule="evenodd" d="m53.9 6.59 5.03 21.14a1.42 1.42 0 0 1-.75 1.72c-.2.09-.43.13-.65.11h-4.01a11.63 11.63 0 0 1-11.49 10.32c-5.92 0-10.8-4.5-11.49-10.32h-1.96A11.75 11.75 0 0 1 16.97 40c-6 0-10.94-4.57-11.61-10.47H1.45A1.36 1.36 0 0 1 .3 29a1.42 1.42 0 0 1-.24-1.27L5.1 6.6C5.46 4.26 7.64 0 13.5 0c.38 0 .76.16 1.03.44a1.5 1.5 0 0 1 0 2.1c-.27.27-.65.43-1.03.43-4.71 0-5.44 3.7-5.5 4.1L3.34 26.6h2.03a11.75 11.75 0 0 1 11.6-10.3c5.94 0 10.84 4.48 11.6 10.3h1.99a11.63 11.63 0 0 1 11.47-10.19c5.89 0 10.75 4.46 11.48 10.23v-.06h2.14L51 7.08c-.07-.41-.77-4.1-5.5-4.1-.39 0-.76-.17-1.03-.44a1.5 1.5 0 0 1 0-2.1c.27-.28.64-.44 1.03-.44 5.85 0 8.03 4.26 8.38 6.59ZM25.66 29.56a9.12 9.12 0 0 0-.02-2.97 8.85 8.85 0 0 0-8.68-7.38 8.85 8.85 0 0 0-8.82 8.94 8.85 8.85 0 0 0 8.81 8.94c4.4 0 8.04-3.26 8.71-7.53Zm24.94 0a8.75 8.75 0 0 0-8.58-10.23 8.75 8.75 0 0 0-8.58 10.23 8.73 8.73 0 0 0 8.58 7.4c4.33 0 7.91-3.2 8.58-7.4Z"/>
      </symbol>
      <symbol viewBox="0 0 61 40" id="logo-glasses-desktop">
        <path d="M43.29 19.07h.73a2.47 2.47 0 0 0-2.14-1.22 2.03 2.03 0 0 1-1.9-1.33c-.72.2-1.42.48-2.1.8h.2c.53 0 1.04.22 1.41.59.38.37.6.87.6 1.4v.28a8.98 8.98 0 0 1 3.2-.52Z"/>
        <path d="M60.73 27.65 55.54 6.57C55.18 4.25 52.93 0 46.9 0c-.4 0-.78.16-1.06.43a1.47 1.47 0 0 0 0 2.1c.28.28.66.43 1.06.43 4.87 0 5.6 3.69 5.67 4.09l4.78 19.45h-2.1a11.72 11.72 0 0 0-5.32-8.41 2.5 2.5 0 0 0-1.54 2.27 2 2 0 0 1 0 .26 9.15 9.15 0 0 1 4.02 7.37c0 .5-.06 1-.14 1.48a8.85 8.85 0 0 1-3.05 5.4 9.13 9.13 0 0 1-11.77 0 8.85 8.85 0 0 1-3.05-5.4 9.04 9.04 0 0 1-.14-1.48 9.1 9.1 0 0 1 .95-3.95c-.5-.03-.98-.26-1.33-.62a1.96 1.96 0 0 1-.54-1.35.7.7 0 0 0-.19-.49 11.57 11.57 0 0 0-1.8 4.94H29.5a11.78 11.78 0 0 0-3.94-7.54 12.17 12.17 0 0 0-16.1 0 11.78 11.78 0 0 0-3.93 7.54H3.44l4.8-19.47c.05-.4.8-4.09 5.66-4.09.4 0 .78-.15 1.06-.43a1.47 1.47 0 0 0 0-2.1A1.52 1.52 0 0 0 13.9 0C7.87 0 5.62 4.25 5.26 6.57L.06 27.65A1.38 1.38 0 0 0 .3 28.9a1.42 1.42 0 0 0 1.2.53H5.5c.08.61.21 1.22.38 1.81.07-.1.1-.23.1-.35A2.03 2.03 0 0 1 8.5 29a8.84 8.84 0 0 1 .06-2.53 8.85 8.85 0 0 1 3.04-5.41 9.13 9.13 0 0 1 11.8 0 8.85 8.85 0 0 1 3.03 5.41 8.87 8.87 0 0 1-2.53 7.75 9.18 9.18 0 0 1-6.38 2.62 9.15 9.15 0 0 1-5.45-1.7c-.36.3-.83.47-1.3.48-.2 0-.4.08-.53.22a.73.73 0 0 0-.22.52c0 .27-.06.54-.18.8a12.09 12.09 0 0 0 7.64 2.7c2.95.01 5.8-1.04 8.02-2.95a11.79 11.79 0 0 0 4-7.44h1.82c.34 2.9 1.74 5.57 3.95 7.51a12.17 12.17 0 0 0 16.06 0 11.78 11.78 0 0 0 3.95-7.5h4.02a1.44 1.44 0 0 0 1.22-.54 1.38 1.38 0 0 0 .22-1.3Z"/>
        <path fill="currentColor" d="M50.92 15.92a4.58 4.58 0 0 1-4.18-2.74 4.37 4.37 0 0 1-.34-1.7 4.4 4.4 0 0 1-1.33 3.14c-.84.83-2 1.3-3.19 1.3 1.2 0 2.35.47 3.2 1.3a4.42 4.42 0 0 1 1.32 3.14c0-1.18.48-2.3 1.32-3.14.85-.83 2-1.3 3.2-1.3ZM38.07 19.38c-.73 0-1.43-.28-1.95-.8a2.7 2.7 0 0 1-.8-1.91c0 .72-.3 1.4-.81 1.91-.52.51-1.22.8-1.95.8.73 0 1.43.29 1.95.8.51.5.8 1.2.8 1.9 0-.71.3-1.4.81-1.9.52-.51 1.22-.8 1.95-.8ZM10.79 33.64c-.73 0-1.43-.3-1.95-.8a2.7 2.7 0 0 1-.8-1.91c0 .71-.29 1.4-.8 1.91-.52.51-1.22.8-1.95.8.73 0 1.43.3 1.95.8.51.5.8 1.2.8 1.92 0-.72.3-1.4.8-1.92.52-.5 1.22-.8 1.95-.8Z"/>
      </symbol>
      <symbol viewBox="0 0 74 23" id="logo-name">
        <path d="M0 1.55A1.29 1.29 0 0 1 1.26.26h7.13c5.06 0 8.39 2.7 8.39 7.13v.06c0 4.85-4.04 7.36-8.8 7.36H2.53v6.8A1.28 1.28 0 0 1 1.27 23 1.27 1.27 0 0 1 0 21.61V1.55Zm8.07 10.97c3.7 0 6.14-2 6.14-4.99v-.06c0-3.2-2.4-4.87-5.96-4.87H2.6v9.88l5.48.04ZM21.6 1.39A1.28 1.28 0 0 1 22.85 0a1.27 1.27 0 0 1 1.27 1.39V21.6A1.28 1.28 0 0 1 22.86 23a1.27 1.27 0 0 1-1.27-1.39V1.4ZM30.67 1.42A1.28 1.28 0 0 1 31.93.17h.34a1.54 1.54 0 0 1 1.29.74l13.6 17.4V1.36A1.24 1.24 0 0 1 48.39.12a1.23 1.23 0 0 1 1.23 1.24v20.3a1.14 1.14 0 0 1-1.15 1.17h-.13a1.7 1.7 0 0 1-1.31-.78L33.12 4.25v17.4a1.26 1.26 0 0 1-1.2 1.25 1.23 1.23 0 0 1-1.2-1.25V1.42h-.05ZM55.94 1.39A1.28 1.28 0 0 1 57.2 0a1.27 1.27 0 0 1 1.26 1.39v12.3L71.23.54c.26-.27.62-.43 1-.45a1.27 1.27 0 0 1 1.21 1.26 1.29 1.29 0 0 1-.41.9l-7.95 7.9 8.57 10.52c.23.26.35.6.35.94a1.31 1.31 0 0 1-1.34 1.28 1.23 1.23 0 0 1-1-.58L63.3 11.86l-4.83 4.85v4.88a1.27 1.27 0 0 1-1.26 1.27 1.26 1.26 0 0 1-1.26-1.27V1.4h-.01Z"/>
      </symbol>
      <symbol viewBox="0 0 75 34" id="logo-name-desktop">
        <path d="M.2 12.42c0-.33.13-.65.36-.89.24-.23.56-.37.9-.38h7.21c5.11 0 8.48 2.68 8.48 7.06v.06c0 4.8-4.08 7.29-8.9 7.29h-5.5v6.73a1.24 1.24 0 0 1-.33.97 1.29 1.29 0 0 1-.95.4 1.3 1.3 0 0 1-.94-.4 1.26 1.26 0 0 1-.34-.97V12.42ZM8.34 23.3c3.75 0 6.2-1.98 6.2-4.94v-.06c0-3.18-2.41-4.83-6.02-4.83H2.8v9.79l5.55.04ZM22.02 12.27a1.24 1.24 0 0 1 .33-.97 1.29 1.29 0 0 1 .95-.4 1.3 1.3 0 0 1 .95.4 1.26 1.26 0 0 1 .33.97v20.02a1.25 1.25 0 0 1-.33.97 1.28 1.28 0 0 1-.95.4 1.3 1.3 0 0 1-.95-.4 1.26 1.26 0 0 1-.33-.97V12.27ZM31.2 12.3c0-.33.14-.64.38-.87.23-.23.55-.36.88-.37h.36a1.58 1.58 0 0 1 1.3.73l13.74 17.23V12.24c0-.33.13-.64.37-.87a1.26 1.26 0 0 1 1.76 0c.23.23.36.54.36.87v20.1a1.1 1.1 0 0 1-.33.82 1.15 1.15 0 0 1-.83.34h-.13a1.74 1.74 0 0 1-1.33-.77L33.67 15.09v17.24c0 .32-.13.62-.35.85-.23.23-.53.37-.86.39-.32-.01-.64-.14-.87-.37a1.21 1.21 0 0 1-.35-.87V12.3h-.04ZM56.74 12.27a1.24 1.24 0 0 1 .33-.97 1.28 1.28 0 0 1 .95-.4 1.3 1.3 0 0 1 .95.4 1.26 1.26 0 0 1 .33.97v12.17l12.9-13a1.5 1.5 0 0 1 1-.45c.33.02.64.15.87.38.23.23.36.54.37.87a1.26 1.26 0 0 1-.42.89l-8.04 7.82 8.67 10.42c.22.26.35.59.35.93a1.28 1.28 0 0 1-.41.91 1.32 1.32 0 0 1-.95.36 1.26 1.26 0 0 1-1-.58l-8.46-10.36-4.88 4.8v4.84a1.24 1.24 0 0 1-.37.89 1.28 1.28 0 0 1-1.4.27 1.28 1.28 0 0 1-.68-.68c-.07-.15-.1-.31-.1-.48v-20h-.01Z"/>
        <path fill="currentColor" d="M26.94 3.75c-.97 0-1.9-.38-2.57-1.05A3.55 3.55 0 0 1 23.29.17c0 .95-.38 1.86-1.06 2.53a3.67 3.67 0 0 1-2.57 1.05c.96 0 1.89.38 2.57 1.05a3.55 3.55 0 0 1 1.06 2.53c0-.95.4-1.86 1.07-2.53a3.69 3.69 0 0 1 2.58-1.05Z"/>
      </symbol>
      <symbol viewBox="0 0 18 11" id="social-icon-vk">
        <path fill-rule="evenodd" clip-rule="evenodd" d="M17.59.71c.12-.4 0-.71-.6-.71h-1.97c-.5 0-.73.26-.85.55 0 0-1 2.4-2.42 3.95-.46.45-.67.6-.92.6-.13 0-.32-.15-.32-.56V.71c0-.5-.13-.71-.55-.71h-3.1c-.3 0-.5.23-.5.44 0 .47.71.58.78 1.89v2.85c0 .62-.11.74-.36.74-.67 0-2.3-2.41-3.26-5.17C3.34.22 3.15 0 2.65 0H.68C.1 0 0 .26 0 .55c0 .5.67 3.05 3.1 6.41 1.64 2.3 3.93 3.54 6.01 3.54 1.26 0 1.41-.28 1.41-.75V8c0-.55.12-.66.52-.66.29 0 .79.14 1.96 1.25 1.33 1.31 1.55 1.9 2.3 1.9h1.97c.57 0 .85-.28.68-.82A8.36 8.36 0 0 0 16.3 7.4c-.46-.53-1.14-1.1-1.35-1.4-.3-.36-.21-.52 0-.85 0 0 2.4-3.32 2.65-4.45Z" fill="#d22856"/>
      </symbol>
      <symbol viewBox="0 0 16 14" id="social-icon-telegram">
        <path fill="#d22856" d="m15.7 1.2-2.37 11.21c-.18.8-.65.99-1.31.62l-3.63-2.67-1.74 1.68c-.2.2-.36.35-.73.35l.26-3.69 6.71-6.06c.3-.26-.06-.4-.45-.14l-8.3 5.22L.57 6.6c-.78-.24-.8-.77.16-1.15L14.7.07c.65-.24 1.21.14 1 1.13Z"/>
      </symbol>
      <symbol viewBox="0 0 15 13" id="social-icon-youtube">
        <path fill="#d22856" d="M1.83 12.8a1.25 1.25 0 0 1-1.28.04 1.1 1.1 0 0 1-.44-.46.97.97 0 0 1-.1-.6V1.22c-.03-.2 0-.41.1-.6C.2.42.35.27.55.16a1.26 1.26 0 0 1 1.28.03l12.4 5.5c1.03.45 1.03 1.17 0 1.62l-12.4 5.5Z"/>
      </symbol>
      <symbol viewBox="0 0 27 34" id="icon-htmlacademy">
        <path d="M13.64.02 13.5 0 0 1.4v24.61L13.5 34 27 26.01V1.41L13.64 0Zm11.6 25L13.5 31.96 1.77 25.02v-10.1l11.68 6.93.02 1.25-8.02-4.75v1.23l8.04 4.8.02 1.3-8.05-4.76v1.22l8.04 4.81 8.12-4.83V16.9l3.62-2.15v10.26Zm0-11.57L22 15.33l-1.48.88-7.06-4.19-.01 1.23 6.04 3.57-.06.03-.13.07-.86.5-4.98-2.95-.01 1.22 3.93 2.33-.93.61-.02.01-2.97-1.74-.01 1.23 1.94 1.13-1.98 1.19L1.8 13.58l11.63-6.96 11.8 6.83Zm0-1.22L13.43 5.3 1.77 12.22V2.99L13.5 1.76 25.23 3v9.24Z"/>
      </symbol>
      <symbol viewBox="0 0 44 44" id="icon--active">
        <path d="M32 28h4V12a4 4 0 0 0-4-4H16v4h16v16Zm-20 4V0H8v8H0v4h8v20a4 4 0 0 0 4 4h20v8h4v-8h8v-4H12Z"/>
      </symbol>
      <symbol viewBox="0 0 48 43" id="icon--fill">
        <path d="M33.12 17.88 15.24 0l-2.83 2.83 4.76 4.76L6.88 17.88a3 3 0 0 0 0 4.24l11 11a3 3 0 0 0 4.24 0l11-11a3 3 0 0 0 0-4.24ZM10.41 20 20 10.42 29.59 20H10.41ZM38 23s-4 4.33-4 7a4 4 0 1 0 8 0c0-2.67-4-7-4-7ZM48 40H0v3h48v-3Z"/>
      </symbol>
      <symbol viewBox="0 0 32 32" id="icon--contrast">
        <path d="M16 4a12 12 0 1 1 0 24 12 12 0 0 1 0-24Zm0-4a16 16 0 1 0 0 32 16 16 0 0 0 0-32Z"/>
        <path d="M16 24.29a8.52 8.52 0 0 0 0-17"/>
      </symbol>
    </svg>
